<svg xmlns="http://www.w3.org/2000/svg" viewBox="150 185 960 855"><path fill="currentColor" fill-rule="evenodd" d="M499.5 214.5C498.4 215.5 497.5 216.5 496.5 217.5C495.5 218.5 494.6 219.6 493.8 220.7C492.9 221.8 492 222.9 491.2 224.1C490.5 225.2 489.7 226.4 489 227.6C488.3 228.8 487.6 230 487 231.4C486.4 232.8 485.8 234.3 485.3 236C484.8 237.7 484.3 239.5 483.9 241.5C483.5 243.5 483.2 245.6 482.9 247.9C482.6 250.1 481.3 245.6 482.1 255.1C483 264.7 484.9 281.3 487.9 305.1C491 328.8 495.1 359.7 500.3 397.7C505.5 435.7 511.8 480.8 519.2 533C526.7 585.2 537.2 658.9 544.8 711C552.3 763.1 558.8 808 564.3 845.8C569.8 883.5 574.4 914 577.9 937.2C581.5 960.5 584.1 976.6 585.6 985.5C587.2 994.4 586.7 988.9 587.4 990.5C588 992.1 588.8 993.7 589.6 995.2C590.5 996.8 591.4 998.3 592.4 999.8C593.4 1001.2 594.5 1002.6 595.6 1004C596.8 1005.4 598.1 1006.8 599.4 1008C600.6 1009.2 601.9 1010.4 603.2 1011.4C604.6 1012.5 605.9 1013.4 607.2 1014.3C608.6 1015.2 610 1015.9 611.4 1016.6C612.8 1017.3 614.2 1017.9 615.6 1018.4C617.1 1018.9 618.6 1019.3 620.2 1019.7C621.8 1020.1 623.4 1020.3 625.1 1020.6C626.7 1020.8 628.5 1020.9 630.2 1021C632 1021.1 634 1021.1 635.8 1021C637.5 1020.9 639.3 1020.8 641 1020.6C642.7 1020.3 644.4 1020.1 646 1019.7C647.6 1019.3 649.2 1018.9 650.8 1018.4C652.3 1017.9 653.8 1017.2 655.2 1016.6C656.7 1016 658.1 1015.4 659.4 1014.7C660.8 1014 662.1 1013.3 663.3 1012.6C664.6 1011.8 665.7 1011.1 666.9 1010.2C668 1009.4 667.2 1010.3 670.1 1007.8C673.1 1005.2 677.9 1001 684.6 995.1C691.2 989.1 699.8 981.5 710.2 972.2C720.6 962.9 732.9 951.8 747 939.1C761.1 926.4 778.9 910.3 795 895.9C811.1 881.4 827.4 866.9 843.8 852.3C860.1 837.7 876.6 823.1 893.2 808.4C909.9 793.8 926.6 779 943.5 764.2C960.4 749.5 979.5 732.9 994.5 719.8C1009.5 706.6 1022.5 695.2 1033.5 685.6C1044.5 675.9 1053.5 667.9 1060.5 661.7C1067.5 655.4 1072.5 650.9 1075.5 648.1C1078.5 645.3 1077.6 646 1078.5 644.9C1079.4 643.8 1080.3 642.7 1081.2 641.6C1082 640.5 1082.8 639.5 1083.6 638.4C1084.3 637.3 1085 636.2 1085.6 635.1C1086.3 634 1086.8 633 1087.4 631.9C1087.9 630.8 1088.4 629.6 1088.9 628.5C1089.4 627.4 1089.9 626.2 1090.3 625C1090.7 623.8 1091.1 622.6 1091.5 621.4C1091.9 620.1 1092.2 619 1092.5 617.6C1092.8 616.3 1093 614.8 1093.2 613.2C1093.5 611.7 1093.6 610 1093.8 608.2C1093.9 606.5 1094 604.6 1094 602.6C1094 600.6 1094.1 598.4 1094 596.4C1093.9 594.3 1093.7 592.2 1093.4 590.2C1093.2 588.1 1092.8 586.1 1092.3 584.1C1091.8 582 1091.3 580 1090.6 578C1090 576 1089.2 574 1088.4 572C1087.5 570 1086.5 568.1 1085.4 566.2C1084.2 564.3 1083 562.4 1081.6 560.6C1080.2 558.7 1078.8 556.9 1077.1 555.1C1075.5 553.3 1075.9 553.1 1071.9 549.9C1067.9 546.6 1061.7 541.9 1053.2 535.8C1044.8 529.6 1034.1 521.9 1021.2 512.8C1008.4 503.6 993.2 493 975.9 480.9C958.5 468.8 936.9 453.8 917.1 440.1C897.3 426.5 877.3 412.7 857 398.9C836.7 385.1 816.2 371.3 795.5 357.3C774.8 343.4 753.8 329.3 732.6 315.2C711.4 301.2 687.3 285.2 668.4 272.8C649.4 260.3 633 249.5 619 240.4C605 231.3 593.5 223.9 584.5 218.1C575.5 212.4 568.9 208.4 564.9 206C560.8 203.6 561.8 204.6 560.1 204C558.5 203.4 556.7 202.9 554.9 202.4C553.1 202 551.3 201.6 549.3 201.3C547.4 201 545.3 200.8 543.2 200.6C541.2 200.5 538.9 200.3 536.8 200.4C534.6 200.4 532.5 200.6 530.4 200.8C528.4 201.1 526.3 201.4 524.3 201.9C522.3 202.4 520.3 203 518.4 203.8C516.4 204.5 514.4 205.4 512.6 206.2C510.8 207.1 509.1 208 507.6 208.9C506 209.8 504.5 210.7 503.2 211.6C501.8 212.6 500.6 213.5 499.5 214.5ZM527.4 238.5C528.1 238.1 528.8 237.8 529.6 237.5C530.4 237.2 531.2 237 532.1 236.8C533 236.5 533.9 236.4 534.9 236.2C535.8 236.1 536.8 236 537.9 236C538.9 236 539.8 235.8 541.1 236C542.4 236.2 543.9 236.6 545.7 237.2C547.4 237.9 549.4 238.7 551.6 239.8C553.7 240.8 556.1 242 558.8 243.5C561.4 245 560.4 244.1 567.2 248.5C574.1 252.9 585 260.1 599.9 270C614.8 279.9 633.7 292.6 656.6 308C679.6 323.4 706.5 341.6 737.5 362.5C768.5 383.4 811.4 412.4 842.5 433.5C873.6 454.6 900.9 473.1 924.3 488.9C947.7 504.8 967.3 518.1 982.9 528.8C998.6 539.5 1010.4 547.6 1018.4 553.1C1026.3 558.6 1027 559.2 1030.6 561.9C1034.3 564.6 1037.5 567.1 1040.4 569.4C1043.2 571.8 1045.6 573.9 1047.6 575.8C1049.6 577.7 1051.2 579.5 1052.4 581C1053.5 582.5 1054 583.7 1054.6 585C1055.3 586.3 1055.8 587.7 1056.3 589.1C1056.8 590.4 1057.2 591.8 1057.4 593.2C1057.7 594.6 1057.9 596 1058 597.4C1058.1 598.8 1058 600.3 1058 601.6C1058 603 1057.9 604.2 1057.8 605.4C1057.6 606.6 1057.5 607.8 1057.2 608.8C1057 609.9 1056.8 610.8 1056.5 611.8C1056.2 612.7 1055.9 613.4 1055.5 614.2C1055.1 615.1 1054.7 615.9 1054.2 616.7C1053.8 617.5 1053.3 618.3 1052.8 619.1C1052.2 619.8 1051.6 620.6 1051 621.4C1050.4 622.1 1051.5 621.3 1049 623.6C1046.5 625.9 1042.2 629.8 1036.1 635.3C1029.9 640.8 1022 647.8 1012.2 656.4C1002.4 665.1 990.8 675.2 977.4 687C963.9 698.8 947.2 713.3 931.6 727C916 740.7 900.1 754.8 883.9 769.2C867.6 783.6 851 798.4 834.1 813.6C817.2 828.7 800 844.2 782.4 860.1C764.8 876 744.4 894.6 728.6 908.9C712.8 923.1 699.2 935.4 687.7 945.7C676.2 956 666.8 964.3 659.6 970.6C652.3 976.9 647.2 981.2 644.2 983.5C641.3 985.8 642.6 984.2 641.8 984.5C640.9 984.8 640.1 985 639.2 985.2C638.4 985.5 637.6 985.6 636.8 985.8C635.9 985.9 635.1 986 634.2 986C633.4 986 632.5 986 631.8 986C631 986 630.2 985.9 629.5 985.8C628.8 985.7 628.1 985.6 627.5 985.4C626.9 985.3 626.3 985.1 625.8 984.9C625.2 984.7 624.8 984.5 624.2 984.1C623.7 983.8 623.2 983.3 622.6 982.7C622.1 982.1 621.5 981.4 620.9 980.6C620.3 979.7 619.6 978.8 619 977.8C618.4 976.7 618.6 982.6 617 974.2C615.4 965.9 612.8 950.4 609.3 927.8C605.8 905.1 601.3 875.2 595.9 838.2C590.5 801.2 584.2 757.1 576.9 705.8C569.6 654.4 559.3 581.6 552.1 530.2C544.9 478.9 538.8 434.7 533.6 397.7C528.5 360.7 524.4 330.8 521.4 308.1C518.3 285.3 516.3 269.8 515.4 261.4C514.4 253 515.5 258.8 515.6 257.6C515.8 256.4 516 255.2 516.3 254.1C516.6 252.9 517 251.8 517.4 250.7C517.9 249.6 518.4 248.5 519 247.5C519.6 246.5 520.3 245.4 521 244.5C521.7 243.6 522.4 242.8 523.1 242C523.8 241.2 524.5 240.6 525.2 240C525.9 239.4 526.6 238.9 527.4 238.5ZM354.9 381.9C353.9 382.2 353 382.6 352.1 383.1C351.2 383.6 350.3 384.2 349.4 384.8C348.5 385.4 347.5 386.2 346.6 386.9C345.7 387.7 344.8 388.6 343.9 389.5C343 390.4 342 391.5 341.1 392.5C340.3 393.5 339.5 394.5 338.8 395.6C338 396.6 337.4 397.6 336.8 398.7C336.1 399.7 335.6 400.8 335.1 401.9C334.6 402.9 334.2 404 333.9 405.1C333.5 406.3 333.2 407.5 332.9 408.8C332.7 410 332.5 411.4 332.3 412.8C332.2 414.1 332.1 415.6 332 417.1C331.9 418.6 331.1 415.3 332 421.9C332.9 428.5 334.8 440 337.6 456.6C340.4 473.2 344.2 494.8 348.9 521.4C353.6 548 359.2 579.5 365.8 616.1C372.3 652.7 381.7 704.4 388.2 740.9C394.8 777.4 400.5 808.9 405.3 835.2C410.1 861.6 414 883 416.9 899.2C419.9 915.5 422 926.7 423.1 932.9C424.3 939 423.5 935 423.9 936.1C424.2 937.2 424.6 938.4 425.1 939.6C425.6 940.7 426.2 941.9 426.9 943.2C427.5 944.4 428.3 945.7 429.1 947C430 948.3 430.9 949.8 431.9 951C432.8 952.2 433.8 953.4 434.9 954.5C435.9 955.6 437 956.6 438.1 957.5C439.2 958.4 440.4 959.2 441.6 960C442.8 960.8 444.1 961.4 445.4 962C446.6 962.6 447.9 963.1 449.2 963.6C450.6 964 451.9 964.4 453.2 964.7C454.6 965 456 965.2 457.4 965.4C458.8 965.5 460.2 965.7 461.6 965.6C463.1 965.6 464.6 965.4 466.2 965.2C467.8 964.9 469.4 964.6 471.1 964.1C472.7 963.6 474.5 963 476.2 962.2C478 961.5 479.5 961.1 481.8 959.8C484 958.4 486.7 956.5 489.8 954.1C492.9 951.6 496.5 948.7 500.4 945.2C504.4 941.7 508.8 937.7 513.6 933.1C518.4 928.6 524.8 922.4 529.4 917.9C534 913.4 538 909.5 541.3 906.1C544.7 902.8 547.4 900 549.4 897.9C551.5 895.7 552.9 894.1 553.8 893.1C554.6 892.1 554.1 892.5 554.2 891.9C554.4 891.3 554.5 890.5 554.5 889.5C554.5 888.5 554.5 887.4 554.5 886C554.5 884.6 554.4 883.1 554.2 881.4C554.1 879.6 553.9 877.4 553.8 875.6C553.6 873.9 553.4 872.3 553.2 870.9C553 869.5 552.8 868.2 552.6 867.1C552.3 866 552.1 865.1 551.9 864.4C551.6 863.6 551.4 863.1 551.1 862.6C550.9 862.1 550.6 861.7 550.4 861.3C550.1 860.9 549.9 860.7 549.6 860.4C549.4 860.2 549.1 860.1 548.9 860C548.6 859.9 549.1 859.2 548.1 860C547.1 860.8 545.3 862.3 542.8 864.7C540.3 867 537 870.2 532.9 874.1C528.9 878 524.1 882.7 518.5 888.1C512.9 893.6 505.2 901.4 499.5 906.9C493.8 912.4 488.8 917.1 484.4 921C480.1 924.9 476.4 928.1 473.3 930.5C470.3 932.9 467.9 934.5 466.1 935.4C464.4 936.2 463.9 935.6 462.9 935.6C461.8 935.6 460.9 935.5 459.9 935.3C459 935.1 458.1 934.8 457.3 934.4C456.5 934.1 455.7 933.6 455 933C454.3 932.4 454.1 934.3 453 931C451.9 927.7 450.4 921.9 448.6 913.4C446.7 905 444.4 893.9 441.7 880.3C439 866.7 435.9 850.4 432.4 831.6C428.9 812.8 424.5 788.7 420.6 767.4C416.8 746 412.9 724.7 409.2 703.4C405.4 682.2 401.7 661 398.1 639.8C394.4 618.7 390.8 597.6 387.2 576.5C383.7 555.4 379.7 532 376.8 513.5C373.8 495 371.3 479.1 369.4 465.7C367.4 452.3 366 441.4 365.1 433.1C364.2 424.7 363.9 418.9 364 415.6C364.1 412.3 365.3 414 366 413.4C366.7 412.7 367.5 412.2 368.2 411.8C369 411.3 369.9 411 370.8 410.8C371.6 410.5 372.5 410.4 373.5 410.4C374.5 410.4 374.5 409.9 376.5 410.6C378.5 411.4 381.5 412.8 385.4 414.9C389.4 417.1 394.4 419.8 400.3 423.3C406.3 426.8 413.2 430.9 421.1 435.8C429.1 440.6 440 447.5 447.9 452.2C455.7 457 462.6 461 468.3 464.3C474.1 467.6 478.8 470.1 482.4 471.9C486.1 473.7 488.7 474.8 490.2 475.1C491.8 475.4 491.3 474.4 491.8 473.9C492.2 473.4 492.5 472.8 492.8 472.1C493.1 471.5 493.3 470.7 493.4 469.9C493.6 469 493.6 468.1 493.6 467.1C493.6 466.1 493.5 464.9 493.4 463.9C493.3 462.8 493.2 461.8 493.1 460.9C492.9 459.9 492.8 459 492.7 458.1C492.6 457.2 492.4 456.4 492.2 455.6C492.1 454.8 492 454.1 491.8 453.4C491.5 452.6 491.3 451.8 490.9 451.1C490.6 450.3 490.2 449.5 489.8 448.7C489.4 447.9 488.9 447.1 488.4 446.2C487.8 445.4 488.1 445 486.6 443.8C485.2 442.5 482.9 440.7 479.8 438.5C476.7 436.3 472.7 433.6 467.9 430.5C463.1 427.4 457.5 423.8 451 419.8C444.5 415.7 435.6 410.3 429 406.2C422.4 402.2 416.5 398.7 411.3 395.7C406.1 392.7 401.7 390.1 397.9 388.1C394.2 386 391.2 384.4 388.9 383.4C386.6 382.3 385.7 382.1 384.1 381.6C382.6 381.1 381 380.7 379.4 380.4C377.9 380 376.3 379.8 374.8 379.6C373.3 379.5 371.8 379.4 370.2 379.4C368.7 379.4 367.2 379.5 365.8 379.6C364.3 379.8 363 379.9 361.7 380.1C360.4 380.3 359.2 380.6 358.1 380.9C356.9 381.2 355.9 381.5 354.9 381.9ZM567.2 491.1C567 492.5 566.9 494.4 566.8 495.9C566.6 497.4 566.5 498.8 566.5 500.1C566.5 501.4 566.5 502.6 566.5 503.7C566.5 504.8 566.6 505.8 566.8 506.8C566.9 507.7 567.1 508.5 567.2 509.2C567.4 510 567.7 510.8 567.9 511.5C568.2 512.2 568.5 512.9 568.8 513.5C569.1 514.1 569.5 514.7 569.9 515.2C570.3 515.8 569 515.2 571.1 516.8C573.3 518.3 577.1 520.9 582.8 524.5C588.4 528.1 595.7 532.8 604.8 538.5C613.8 544.2 624.6 551 637.1 558.8C649.6 566.5 667.3 577.4 679.9 585.2C692.4 593.1 703.3 600.1 712.5 606.1C721.7 612.1 729.2 617.2 735 621.4C740.8 625.5 744.9 628.7 747.4 631C749.8 633.3 749 633.7 749.6 635C750.3 636.3 750.8 637.4 751.3 638.6C751.8 639.7 752.2 640.7 752.4 641.7C752.7 642.7 752.9 643.6 753 644.4C753.1 645.2 753.1 645.8 753 646.6C752.9 647.4 752.8 648.2 752.7 649.1C752.5 650 752.3 650.9 752.1 651.9C751.8 652.8 751.5 653.8 751.1 654.9C750.8 655.9 751.7 655.7 749.9 658.1C748.1 660.5 744.9 664.3 740.2 669.3C735.6 674.4 729.6 680.7 722.2 688.4C714.9 696.1 706.1 705.2 695.9 715.5C685.7 725.8 671.2 740 661.1 750.5C651 761 642.4 770.3 635.2 778.5C628 786.7 622.3 793.7 618.1 799.5C613.8 805.3 611.1 810 609.8 813.5C608.4 817 610.1 818.4 610.2 820.5C610.4 822.6 610.6 824.5 610.8 826.1C611 827.8 611.2 829.2 611.4 830.4C611.7 831.6 611.9 832.5 612.1 833.2C612.4 834 612.6 834.3 612.9 834.8C613.1 835.2 613.4 835.6 613.8 835.9C614.1 836.2 614.4 836.4 614.8 836.6C615.1 836.8 615.5 836.9 615.9 837C616.3 837.1 615.2 838.6 617.1 837C619.1 835.4 622.5 832.2 627.5 827.4C632.5 822.7 639 816.3 647 808.3C655 800.3 664.6 790.8 675.6 779.6C686.7 768.5 702.2 752.8 713.4 741.4C724.5 730 734.2 719.9 742.4 711.2C750.7 702.5 757.5 695.1 762.8 689.1C768.2 683 772.1 678.3 774.5 675C776.9 671.7 776.6 671 777.5 669C778.4 667 779.2 664.9 779.8 662.9C780.5 660.8 781 658.7 781.4 656.6C781.9 654.5 782.2 652.4 782.4 650.2C782.6 648.1 782.6 645.8 782.6 643.8C782.6 641.7 782.5 639.6 782.4 637.7C782.2 635.7 782 633.9 781.6 632.1C781.3 630.3 780.9 628.5 780.4 626.9C779.9 625.2 779.3 623.7 778.6 622.1C778 620.6 777.2 619.1 776.4 617.6C775.6 616.2 774.8 614.8 773.8 613.4C772.9 612 771.8 610.7 770.8 609.4C769.7 608.1 770.2 607.9 767.2 605.6C764.3 603.3 759.7 600 753.3 595.7C746.9 591.3 738.8 586 728.9 579.6C719.1 573.2 707.5 565.7 694.1 557.2C680.8 548.8 662.1 537.1 648.9 528.8C635.6 520.4 624.2 513.2 614.6 507.2C604.9 501.2 597.2 496.3 591.2 492.6C585.2 488.8 581.1 486.3 578.8 484.9C576.4 483.5 577.8 484.3 577.2 484.1C576.7 483.9 576.2 483.8 575.7 483.6C575.2 483.5 574.6 483.4 574.1 483.4C573.5 483.3 572.9 483.3 572.4 483.4C571.8 483.4 571.2 483.4 570.6 483.6C570.1 483.9 569.6 484.4 569.2 485C568.8 485.6 568.4 486.5 568.1 487.5C567.7 488.5 567.5 489.7 567.2 491.1ZM260.2 533.5C259.4 533.8 258.6 534.1 257.8 534.5C256.9 534.9 256.2 535.3 255.4 535.7C254.7 536.1 254 536.6 253.3 537.1C252.6 537.6 252 538.1 251.4 538.6C250.8 539.2 250.2 539.7 249.6 540.4C249.1 541 248.5 541.7 248 542.4C247.5 543.2 247 544 246.5 544.8C246 545.7 245.6 546.6 245.1 547.5C244.7 548.4 244.2 549.4 243.9 550.5C243.5 551.6 243.2 552.7 243 553.9C242.8 555.2 242.6 556.4 242.5 557.8C242.4 559.2 242.4 560.6 242.4 562.1C242.4 563.6 241.8 562.2 242.6 566.9C243.4 571.6 244.9 579.4 247.2 590.3C249.4 601.2 252.4 615.3 256.1 632.4C259.7 649.6 264.1 669.9 269.2 693.2C274.4 716.6 281.6 749.5 286.8 772.8C291.9 796 296.4 816.1 300.1 832.9C303.9 849.7 307 863.3 309.4 873.6C311.8 884 313.5 891.1 314.5 895C315.5 898.9 315.1 896.3 315.5 897C315.9 897.7 316.4 898.4 316.9 899.1C317.4 899.8 318 900.5 318.6 901.2C319.3 901.9 320 902.6 320.8 903.4C321.5 904.1 322.3 904.9 323.2 905.6C324.2 906.3 325.2 906.9 326.3 907.5C327.4 908.1 328.6 908.6 329.9 909C331.2 909.4 332.6 909.8 334.1 910.1C335.6 910.4 337.3 910.7 338.9 910.9C340.4 911 342 911 343.5 910.9C345 910.8 346.5 910.6 348 910.3C349.5 910 350.9 909.6 352.4 909C353.8 908.4 355 907.9 356.6 907C358.2 906.1 360 904.8 361.9 903.3C363.9 901.8 366 900 368.3 897.9C370.6 895.9 373.1 893.5 375.8 890.9C378.4 888.2 381.8 884.9 384.2 882.1C386.7 879.3 388.8 876.7 390.6 874.2C392.3 871.7 393.7 869.3 394.7 867.1C395.7 864.8 396.3 862.7 396.6 860.8C396.9 858.8 396.5 856.9 396.4 855.2C396.2 853.6 396.1 852.1 395.9 850.8C395.7 849.4 395.4 848.2 395.1 847.2C394.8 846.2 394.5 845.4 394.1 844.8C393.8 844.1 393.7 843.2 392.9 843.2C392.1 843.3 390.9 843.8 389.4 844.9C387.8 845.9 385.9 847.5 383.6 849.6C381.3 851.7 378.7 854.4 375.6 857.5C372.6 860.6 368.5 865.3 365.4 868.5C362.3 871.7 359.5 874.5 357.1 876.9C354.6 879.2 352.5 881.1 350.7 882.6C348.9 884.1 347.4 885.1 346.2 885.8C345.1 886.4 344.5 886.2 343.8 886.2C343 886.3 342.2 886.3 341.5 886.2C340.8 886.2 340.1 886 339.5 885.8C338.9 885.5 338.3 885.2 337.8 884.8C337.2 884.3 337.4 887 336.2 883.2C335.1 879.5 333.3 872.5 330.9 862.3C328.4 852.1 325.4 838.6 321.6 821.9C317.9 805.2 313.5 785.3 308.5 762.1C303.5 738.9 296.4 706.1 291.5 682.9C286.6 659.7 282.4 639.8 279 623.1C275.6 606.4 272.9 592.9 271 582.7C269.1 572.5 267.9 565.5 267.5 561.8C267.1 558 268.1 560.7 268.5 560.2C268.9 559.8 269.3 559.4 269.7 559.1C270.1 558.8 270.6 558.6 271.1 558.4C271.6 558.2 272.1 558.1 272.6 558C273.2 557.9 273.2 557.6 274.4 558C275.6 558.4 277.4 559.3 279.9 560.6C282.4 561.8 285.6 563.6 289.3 565.7C293.1 567.8 297.5 570.4 302.5 573.4C307.5 576.4 314.5 580.7 319.5 583.6C324.5 586.6 328.9 589.1 332.6 591.2C336.3 593.3 339.3 594.9 341.7 596.1C344.1 597.2 345.8 598 346.9 598.2C347.9 598.5 347.8 598.1 348.1 597.8C348.5 597.4 348.7 596.9 348.9 596.1C349 595.4 349.1 594.5 349.1 593.4C349.1 592.3 349 591 348.9 589.5C348.7 588 348.4 586.1 348.1 584.5C347.8 582.9 347.5 581.5 347.2 580.1C346.8 578.8 346.5 577.5 346.1 576.4C345.7 575.2 345.2 574.2 344.8 573.2C344.3 572.3 344.2 571.8 343.2 570.8C342.3 569.7 340.9 568.5 339.1 567.1C337.3 565.6 335.1 564 332.4 562.2C329.7 560.4 326.6 558.3 323 556.1C319.4 553.9 314.6 551.1 311 548.9C307.4 546.7 304.1 544.8 301.1 543.1C298.2 541.4 295.6 539.9 293.4 538.7C291.1 537.5 289.3 536.5 287.8 535.8C286.2 535 285.4 534.7 284.2 534.2C283.1 533.8 281.9 533.4 280.7 533.1C279.5 532.8 278.3 532.6 277.1 532.4C275.8 532.2 274.6 532.1 273.4 532C272.1 531.9 270.8 532 269.6 532C268.4 532 267.3 532.1 266.2 532.2C265.1 532.4 264.1 532.5 263.1 532.8C262.1 533 261.1 533.2 260.2 533.5ZM409.9 608.1C409.6 608.3 409.3 608.6 409.1 608.9C408.9 609.2 408.7 609.5 408.6 609.9C408.4 610.3 408.3 610.8 408.2 611.3C408.1 611.8 408 612.4 408 613C408 613.6 408 614.2 408 615C408 615.8 408.1 616.6 408.2 617.6C408.4 618.5 408.5 619.6 408.8 620.7C409 621.8 409.2 623.1 409.5 624.4C409.8 625.7 409.4 626.9 410.5 628.6C411.6 630.3 413.4 632.3 415.9 634.6C418.5 636.9 421.8 639.5 425.8 642.4C429.8 645.2 434.6 648.4 440.1 651.9C445.6 655.3 453.3 659.8 458.9 663.1C464.4 666.5 469.3 669.4 473.4 672C477.6 674.6 481.1 676.7 483.8 678.5C486.6 680.3 488.6 681.6 490 682.6C491.4 683.6 491.3 683.7 492 684.4C492.7 685 493.3 685.8 493.9 686.6C494.6 687.4 495.2 688.2 495.8 689.2C496.4 690.1 497 691.2 497.6 692.2C498.2 693.3 498.9 694.6 499.4 695.8C499.9 696.9 500.4 698.1 500.8 699.2C501.1 700.4 501.5 701.6 501.8 702.8C502 703.9 502.2 705.1 502.4 706.2C502.5 707.4 502.6 708.6 502.6 709.8C502.6 710.9 502.6 712.1 502.5 713.4C502.4 714.6 502.2 715.9 502 717.1C501.8 718.4 501.5 719.7 501.1 721C500.8 722.3 500.8 723.2 499.9 725C498.9 726.8 497.4 729 495.3 731.8C493.2 734.5 490.6 737.6 487.4 741.2C484.3 744.9 480.5 749 476.2 753.5C472 758 466 763.9 461.8 768.5C457.5 773.1 453.9 777.2 450.9 780.9C447.9 784.7 445.6 787.9 443.8 790.8C442.1 793.7 440.9 796.1 440.4 798.1C439.8 800.1 440.5 801.4 440.6 802.9C440.7 804.4 440.9 805.7 441 807C441.1 808.3 441.3 809.4 441.5 810.5C441.7 811.6 441.9 812.5 442.1 813.4C442.4 814.2 442.6 815 442.9 815.6C443.1 816.3 443.4 816.9 443.6 817.4C443.9 817.9 444.1 818.3 444.4 818.6C444.6 819 444.9 819.2 445.1 819.4C445.4 819.5 444.9 820.3 445.9 819.6C446.8 818.9 448.5 817.4 450.9 815.1C453.3 812.7 456.5 809.6 460.3 805.7C464.2 801.8 468.7 797 474 791.5C479.3 786 486.7 778.3 492 772.5C497.3 766.7 502 761.4 506.1 756.7C510.1 751.9 513.5 747.7 516.2 744.1C518.9 740.4 521 737.2 522.4 734.6C523.8 732 524 730.4 524.6 728.4C525.3 726.3 525.8 724.3 526.2 722.3C526.7 720.3 527 718.4 527.2 716.4C527.5 714.5 527.6 712.6 527.6 710.8C527.6 708.9 527.5 707.1 527.4 705.2C527.2 703.4 527 701.6 526.7 699.9C526.4 698.1 526 696.4 525.6 694.6C525.1 692.9 524.6 691.2 524 689.5C523.4 687.8 522.7 686.1 522 684.5C521.3 682.9 520.4 681.3 519.6 679.8C518.7 678.2 517.7 676.7 516.7 675.2C515.7 673.8 514.6 672.4 513.4 671C512.2 669.6 511.6 668.7 509.6 667C507.6 665.3 504.8 663.1 501.2 660.6C497.7 658.1 493.4 655.2 488.2 651.9C483.1 648.6 477.3 644.9 470.6 640.8C464 636.6 454.9 631.2 448.4 627.2C441.8 623.3 436.2 619.9 431.4 617.1C426.7 614.3 422.8 612.1 419.8 610.4C416.8 608.7 414.7 607.6 413.5 607C412.3 606.4 412.8 607 412.5 607C412.2 607 411.9 607.1 411.6 607.2C411.3 607.3 411 607.4 410.7 607.6C410.4 607.7 410.1 607.9 409.9 608.1ZM175 647.9C174.3 648.3 173.6 648.6 173 649.1C172.4 649.6 171.7 650.2 171.1 650.9C170.5 651.5 169.9 652.3 169.4 653.1C168.8 654 168.3 654.9 167.8 655.9C167.2 656.9 166.6 657.8 166.2 659.1C165.9 660.5 165.7 662.1 165.7 664C165.7 665.9 165.8 668.1 166.1 670.5C166.3 672.9 166.8 675.6 167.4 678.6C168 681.6 168.4 683.8 169.6 688.4C170.8 692.9 172.4 698.8 174.4 705.9C176.5 713 178.9 721.4 181.8 731.1C184.7 740.8 188 751.8 191.8 764.1C195.5 776.4 200.5 792.9 204.2 804.9C208 816.9 211.3 827.3 214.2 836.1C217.1 845 219.5 852.2 221.6 857.9C223.6 863.5 225.2 867.6 226.4 870.1C227.6 872.6 227.8 872 228.6 872.9C229.5 873.7 230.4 874.5 231.4 875.1C232.4 875.8 233.5 876.4 234.6 876.9C235.8 877.4 237 877.8 238.4 878.1C239.7 878.5 241.2 878.7 242.6 878.9C244 879 245.4 879 246.8 878.9C248.1 878.8 249.4 878.6 250.8 878.3C252.1 878 253.4 877.6 254.6 877C255.9 876.4 257 875.9 258.4 875C259.8 874.1 261.2 873.1 262.9 871.8C264.5 870.6 266.2 869.1 268.1 867.4C270 865.8 272 863.9 274.1 861.9C276.2 859.8 278.9 857.3 280.9 855.1C282.8 853 284.5 851 285.9 849.1C287.2 847.2 288.3 845.4 289.1 843.7C289.9 842 290.4 840.4 290.6 839C290.8 837.6 290.5 836.2 290.4 835C290.3 833.8 290.1 832.7 289.9 831.8C289.8 830.8 289.6 830 289.3 829.2C289.1 828.5 288.8 828 288.5 827.5C288.2 827 288.2 826.4 287.5 826.5C286.8 826.6 285.8 827.1 284.5 828C283.2 828.9 281.5 830.2 279.5 832C277.5 833.8 275.2 835.9 272.5 838.5C269.8 841.1 266.2 844.9 263.5 847.5C260.8 850.1 258.3 852.3 256.1 854.2C253.9 856 252 857.5 250.4 858.6C248.7 859.6 247.4 860.3 246.2 860.6C245.1 860.9 245.1 862.4 243.8 860.4C242.4 858.3 240.6 854.3 238.2 848.2C235.9 842.2 233.1 834.2 229.8 824.2C226.4 814.3 222.6 802.3 218.2 788.4C213.9 774.4 207.9 754.6 203.8 740.6C199.6 726.6 196 714.5 193.1 704.4C190.2 694.2 188 686 186.4 679.6C184.8 673.3 183.8 668.9 183.5 666.4C183.2 663.9 184.1 665.1 184.5 664.6C184.9 664.1 185.2 663.7 185.6 663.3C186 662.9 186.4 662.7 186.9 662.4C187.3 662.2 187.8 662.1 188.2 662C188.7 661.9 188.6 661.6 189.8 662C190.9 662.4 192.6 663.2 194.9 664.3C197.3 665.5 200.2 667 203.8 668.9C207.4 670.9 211.6 673.2 216.4 675.9C221.2 678.6 227.9 682.4 232.6 685.1C237.4 687.8 241.5 690.1 245 692C248.5 693.9 251.3 695.4 253.5 696.5C255.7 697.6 257.2 698.3 258.1 698.6C259 698.9 258.7 698.6 258.9 698.4C259.1 698.2 259.2 697.8 259.3 697.3C259.4 696.8 259.4 696.2 259.4 695.4C259.4 694.7 259.4 693.8 259.2 692.8C259.1 691.7 258.9 690.3 258.8 689.2C258.6 688.2 258.4 687.2 258.2 686.2C258 685.3 257.8 684.5 257.6 683.8C257.3 683 257.1 682.3 256.9 681.8C256.6 681.2 256.9 681 256.1 680.2C255.3 679.5 253.9 678.4 252 677.1C250.1 675.8 247.6 674.2 244.5 672.4C241.4 670.5 237.8 668.4 233.6 666C229.4 663.6 223.6 660.4 219.4 658C215.1 655.6 211.4 653.6 208.1 651.9C204.9 650.1 202.1 648.7 199.9 647.6C197.6 646.5 195.9 645.7 194.6 645.2C193.4 644.8 193.1 644.9 192.4 644.8C191.6 644.6 190.8 644.5 190 644.5C189.2 644.5 188.4 644.5 187.5 644.5C186.6 644.5 185.8 644.6 184.9 644.8C184 644.9 183 645.1 182.1 645.2C181.2 645.4 180.4 645.7 179.6 645.9C178.7 646.2 177.9 646.5 177.2 646.8C176.4 647.1 175.7 647.5 175 647.9ZM310.4 714.4C310.3 715.6 310.2 717.2 310.6 718.6C311.1 720.1 311.8 721.5 312.9 723C314.1 724.5 315.5 726 317.3 727.5C319.1 729 321.3 730.6 323.8 732.1C326.2 733.7 329.7 735.4 332.2 736.9C334.8 738.4 337 739.8 339 741.1C341 742.4 342.6 743.6 344 744.7C345.4 745.8 346.5 746.8 347.2 747.8C348 748.7 348.3 749.4 348.8 750.2C349.2 751.1 349.5 752 349.7 752.9C349.9 753.9 350 754.8 350.1 755.8C350.1 756.8 350 757.8 349.9 758.9C349.7 759.9 349.6 761 349.1 762.1C348.7 763.3 348 764.5 347.2 765.8C346.3 767.1 345.3 768.5 344.1 769.9C342.8 771.4 341.4 772.9 339.8 774.5C338.1 776.1 335.8 777.9 334.2 779.5C332.7 781.1 331.3 782.6 330.2 784.1C329.1 785.5 328.2 786.9 327.6 788.2C326.9 789.5 326.5 790.7 326.4 791.9C326.2 793 326.5 794.1 326.6 795.1C326.7 796.1 326.8 797 326.9 797.9C327.1 798.7 327.2 799.5 327.3 800.1C327.4 800.8 327.6 801.4 327.8 801.9C327.9 802.4 328.1 802.8 328.2 803.1C328.4 803.5 328.6 803.8 328.8 804.1C329 804.3 329.2 804.5 329.4 804.7C329.7 804.8 329.9 804.9 330.1 805C330.4 805.1 330.3 805.3 330.9 805C331.4 804.7 332.2 804.1 333.3 803.1C334.4 802.2 335.8 800.9 337.4 799.4C339.1 797.8 341 795.9 343.2 793.8C345.5 791.6 348.5 788.6 350.8 786.2C353 783.9 355 781.8 356.7 779.9C358.4 777.9 359.9 776.2 361.1 774.6C362.3 773.1 363.2 771.7 363.9 770.5C364.6 769.3 364.8 768.6 365.1 767.5C365.5 766.4 365.8 765.3 366 764.2C366.2 763 366.4 761.8 366.5 760.6C366.6 759.3 366.6 758 366.6 756.6C366.6 755.3 366.6 753.8 366.4 752.4C366.2 751 365.9 749.6 365.5 748.2C365.1 746.9 364.6 745.6 364 744.2C363.4 742.9 362.7 741.6 361.9 740.4C361.1 739.1 360.3 737.9 359.1 736.6C358 735.3 356.6 734 355 732.6C353.4 731.2 351.6 729.8 349.5 728.4C347.4 726.9 345.1 725.4 342.6 723.9C340.1 722.3 336.9 720.6 334.4 719.1C331.8 717.7 329.5 716.4 327.4 715.3C325.3 714.2 323.5 713.2 321.8 712.4C320.2 711.6 318.7 711 317.5 710.5C316.3 710 315.4 709.6 314.5 709.5C313.6 709.4 312.9 709.5 312.3 709.8C311.7 710.1 311.3 710.7 310.9 711.4C310.6 712.2 310.4 713.2 310.4 714.4Z"></path></svg>